# xmcd CD database file
#
# Track frame offsets:
#	150
#	12603
#	27675
#	39168
#	52651
#	64710
#	76898
#	90806
#	102927
#	117088
#	131971
#	145719
#	156564
#	171128
#	184437
#	198623
#	212265
#	223124
#	236440
#	251615
#
# Disc length: 3527 seconds
#
# Revision: 0
# Processed by: cddbd v1.5.2PL0 Copyright (c) Steve Scherf et al.
# Submitted via: CDex 1.51
#
DISCID=150dc514
DTITLE=Various Artist - Legends of Jazz Vol 2
DYEAR=2006
DGENRE=Jazz
TTITLE0=The Thrill Is Gone - Chet Baker Quartet
TTITLE1=Enigma - Miles Davis
TTITLE2=Our Delight - Dizzy Gillespie and His Orchestra
TTITLE3=Day Dream - Jonny Hodges and His Orchestra
TTITLE4=Taking A Chance On Love - Billy Eckstine
TTITLE5=S'wonderful - Dave Brubeck Trio
TTITLE6=I Get A Kick Out Of You - Oscar Peterson
TTITLE7=Yardbird Suite - Charlie Parker Septet
TTITLE8=Spotlite - Coleman Hawkins and His Orchestra
TTITLE9=Trav'lin' Light - Billie Holiday
TTITLE10=Whispering - Sonny Rollins
TTITLE11=Brown Gold - Art Pepper
TTITLE12=Four Brothers - Woody Herman and His Orchestra
TTITLE13=Take The "A" Train - Duke Ellington and His Orchestra
TTITLE14=One For My Baby - Jonny Mercer
TTITLE15=Skyliner - Charlie Barnet and His Orchestra
TTITLE16=Ornithology - Bud Powell
TTITLE17=Straight No Chaser - Thelonious Monk
TTITLE18=Intoit - Stan Getz Quartet
TTITLE19=Melancholy Me - Ella Fitzgerald
EXTD=YEAR: 2006
EXTT0=
EXTT1=
EXTT2=
EXTT3=
EXTT4=
EXTT5=
EXTT6=
EXTT7=
EXTT8=
EXTT9=
EXTT10=
EXTT11=
EXTT12=
EXTT13=
EXTT14=
EXTT15=
EXTT16=
EXTT17=
EXTT18=
EXTT19=
PLAYORDER=
